<?xml version="1.0" encoding="UTF-8" standalone="no"?>
<!-- Created with Inkscape (http://www.inkscape.org/) -->

<svg
   xmlns:dc="http://purl.org/dc/elements/1.1/"
   xmlns:cc="http://creativecommons.org/ns#"
   xmlns:rdf="http://www.w3.org/1999/02/22-rdf-syntax-ns#"
   xmlns:svg="http://www.w3.org/2000/svg"
   xmlns="http://www.w3.org/2000/svg"
   xmlns:sodipodi="http://sodipodi.sourceforge.net/DTD/sodipodi-0.dtd"
   xmlns:inkscape="http://www.inkscape.org/namespaces/inkscape"
   version="1.1"
   id="svg80"
   width="393.30878"
   height="349.08954"
   viewBox="0 0 393.30878 349.08954"
   sodipodi:docname="bangalore-tactical.svg"
   inkscape:version="0.92.1 r15371">
  <metadata
     id="metadata86">
    <rdf:RDF>
      <cc:Work
         rdf:about="">
        <dc:format>image/svg+xml</dc:format>
        <dc:type
           rdf:resource="http://purl.org/dc/dcmitype/StillImage" />
        <dc:title></dc:title>
      </cc:Work>
    </rdf:RDF>
  </metadata>
  <defs
     id="defs84" />
  <sodipodi:namedview
     pagecolor="#ffffff"
     bordercolor="#666666"
     borderopacity="1"
     objecttolerance="10"
     gridtolerance="10"
     guidetolerance="10"
     inkscape:pageopacity="0"
     inkscape:pageshadow="2"
     inkscape:window-width="1280"
     inkscape:window-height="704"
     id="namedview82"
     showgrid="false"
     inkscape:zoom="1.1175"
     inkscape:cx="195.09848"
     inkscape:cy="160.16916"
     inkscape:window-x="0"
     inkscape:window-y="128"
     inkscape:window-maximized="1"
     inkscape:current-layer="svg80" />
  <path
     style="fill:#a2a2a2;stroke-width:1.33333337"
     d="m 138.90877,347.32037 c -1.18292,-1.18292 -1.6,-13.65275 -1.6,-47.83737 0,-43.763 0.13452,-46.33527 2.5136,-48.06667 2.19195,-1.59521 24.16379,-46.69499 24.156,-49.58303 -0.001,-0.59788 -4.35293,-1.00397 -9.6696,-0.90244 -5.31667,0.1016 -11.31667,0.14072 -13.33333,0.0871 l -3.66667,-0.0976 v -20.033 -20.033 l 3.52409,-1.33985 c 2.22444,-0.84574 25.35354,-1.20236 62.71602,-0.967 50.88728,0.32054 59.3692,0.65345 60.45549,2.37285 0.69496,1.1 1.27276,10.506 1.28399,20.90224 0.0177,16.38852 -0.26758,18.95956 -2.14511,19.33333 -1.34688,0.26812 -6.57711,9.86487 -13.83551,25.38627 l -11.66998,24.95517 13.50217,0.37816 13.50217,0.37816 0.35082,46.50899 c 0.25053,33.21499 -0.082,47.03045 -1.16327,48.33333 -2.08123,2.50774 -122.42139,2.72384 -124.92088,0.22435 z m 123.41751,-47.4 0.35084,-45.66667 h -13.27216 c -7.29968,0 -13.62808,-0.57592 -14.06311,-1.27981 -1.05111,-1.70072 21.68531,-50.7646 24.83873,-53.60057 2.15307,-1.93632 2.46152,-4.38291 2.46152,-19.52402 0,-14.55473 -0.33573,-17.43913 -2.10905,-18.11961 -2.75441,-1.05697 -115.69415,-1.05697 -118.44856,0 -1.77752,0.68209 -2.10905,3.60883 -2.10905,18.61839 v 17.80906 l 12.98456,0.38162 c 11.04984,0.32474 13.05009,0.72412 13.42441,2.68026 0.55584,2.90474 -22.33904,51.7582 -24.67653,52.65519 -1.37458,0.52747 -1.73244,10.14004 -1.73244,46.5356 v 45.8708 l 61,-0.34679 61,-0.34678 z M 148.72484,253.05422 c -0.43507,-0.70393 2.7433,-8.67202 7.06305,-17.70686 4.31975,-9.03484 9.45713,-20.01071 11.41643,-24.39083 5.68272,-12.70403 5.68062,-12.70283 22.14784,-12.70283 10.40398,0 14.70516,0.4921 15.79665,1.80727 1.15692,1.394 -0.69397,6.50084 -8.09439,22.33333 -5.27685,11.28934 -10.83618,22.92607 -12.35408,25.8594 l -2.75981,5.33334 -16.21235,0.37354 c -9.35273,0.21548 -16.54702,-0.168 -17.00334,-0.90636 z m 42.80018,-25.46718 c 6.02335,-12.83334 10.98879,-24.08334 11.03431,-25 0.0612,-1.23132 -3.52207,-1.66667 -13.71768,-1.66667 H 175.0412 l -11.53288,24.50777 c -6.34308,13.47928 -11.53288,24.89958 -11.53288,25.37844 0,0.47887 6.43456,0.70038 14.29902,0.49223 l 14.29903,-0.37844 z m -0.10093,25.51992 c -0.81328,-1.31591 21.2264,-48.99119 24.27929,-52.51992 1.68847,-1.95164 4.3574,-2.33334 16.31544,-2.33334 10.23235,0 14.713,0.50155 15.76092,1.7642 1.11076,1.33839 -1.30216,7.6942 -9.99718,26.33334 -6.30375,13.51302 -12.06262,25.31913 -12.7975,26.2358 -1.55337,1.93762 -32.38954,2.41533 -33.56097,0.51992 z m 42.88468,-25.47678 c 6.05,-13.12169 11,-24.49937 11,-25.28372 0,-0.91728 -4.74625,-1.42609 -13.3026,-1.42609 -12.32876,0 -13.44531,0.21961 -15.25209,3 -2.1679,3.33607 -22.11198,45.61039 -22.11198,46.86948 0,0.43845 6.45,0.77485 14.33334,0.74757 l 14.33333,-0.0496 11,-23.85761 z M 0.41680084,197.4807 c -1.2780925,-3.33065 0.5709528,-22.36396 2.99921156,-30.87265 6.2625372,-21.94409 22.4096846,-41.39489 42.2360566,-50.87741 6.044519,-2.89096 14.335227,-5.92671 18.423796,-6.74612 l 7.433761,-1.48984 2.276464,-9.620494 C 78.907572,76.230462 88.870165,57.387249 104.01931,40.691187 119.23649,23.920141 136.97606,12.49145 158.15609,5.813666 213.90238,-11.762406 275.35761,11.58335 304.4845,61.40125 l 5.17575,8.852449 h 8.87747 c 17.91568,0 30.84558,5.462976 45.00165,19.013517 19.14881,18.329734 24.31268,45.924424 13.59375,72.642324 -1.67639,4.17856 -1.55528,4.51159 3.63688,10 8.44292,8.92468 12.53877,16.21864 12.53877,22.3293 v 5.37565 l -59.66667,-0.34705 -59.66666,-0.34707 -0.66667,-20.19759 c -0.55259,-16.74133 -1.06595,-20.63806 -3,-22.77165 -2.84641,-3.14009 -2.89033,-4.3246 -0.34155,-9.21168 3.39668,-6.51284 2.66912,-24.14011 -1.41773,-34.34888 -1.88427,-4.70682 -4.58427,-9.60613 -6,-10.88735 -2.25009,-2.036314 -2.57405,-4.201164 -2.57405,-17.201331 0,-9.838256 -0.56411,-15.614559 -1.66667,-17.066211 -1.88163,-2.477395 -13.31844,-7.648645 -16.91584,-7.648645 -2.73625,0 -7.20292,3.899436 -12.60012,11 l -3.80055,5 h -23.20478 -23.20479 l -7.10275,-7.333334 c -7.86382,-8.119136 -9.86121,-8.640022 -19.94965,-5.202544 -9.15943,3.120928 -10.22152,5.369563 -10.22152,21.64068 0,13.166071 -0.18503,14.082971 -3.77437,18.703325 -6.26698,8.06715 -8.22563,14.90242 -8.22563,28.70572 0,10.44094 0.43209,13.00918 2.66667,15.84998 3.2757,4.16439 3.27609,4.23752 0.0456,8.69016 -2.24534,3.09475 -2.69964,6.38439 -3.16887,22.94602 l -0.54776,19.33333 -63.534681,0.34628 C 7.5712966,199.57841 1.1534157,199.40029 0.41680084,197.4807 Z M 137.58582,131.92037 c 0.63104,-10.52273 4.78439,-21.56803 9.61894,-25.58035 1.68329,-1.397 2.10809,-4.71298 2.12442,-16.582914 0.0107,-8.160207 0.46123,-15.470804 1,-16.245772 0.53878,-0.774968 3.01806,-2.234401 5.50951,-3.243187 l 4.52991,-1.834154 6.19036,7.058236 6.19036,7.058236 26.09918,0.708141 c 14.35455,0.389477 27.57654,0.337351 29.38218,-0.11584 1.91649,-0.481008 5.18278,-3.61136 7.84721,-7.520613 4.89915,-7.188059 7.79689,-8.224496 12.9342,-4.626184 2.77017,1.940302 2.96335,3.07531 2.96335,17.411517 0,14.843134 0.12266,15.494064 3.81836,20.257734 5.5721,7.18236 8.18164,15.13978 8.18164,24.9488 v 8.63968 h -63.50466 -63.50464 z m 123.72295,1.71668 c 0,-7.3732 -4.37027,-19.36905 -9.10357,-24.98819 -3.33647,-3.96087 -3.59211,-5.21024 -4.0193,-19.643114 -0.44465,-15.022948 -1.13324,-17.347319 -5.15426,-17.398296 -0.88575,-0.0112 -3.20079,2.693281 -5.14454,6.010024 -1.94373,3.316743 -4.62958,6.616743 -5.96854,7.333333 -1.36508,0.730571 -14.82982,1.302892 -30.65251,1.302892 h -28.21801 l -6.34059,-6.860333 c -5.46015,-5.907744 -6.8306,-6.737345 -9.86963,-5.974597 l -3.52905,0.885736 v 14.378593 c 0,13.947182 -0.12267,14.545372 -4.08771,19.937012 -5.05521,6.87403 -9.24562,18.47689 -9.24562,25.60029 v 5.36664 h 60.66666 60.66667 z"
     id="path102"
     inkscape:connector-curvature="0" />
</svg>
