<?xml version="1.0" encoding="UTF-8" standalone="no"?>
<!-- Created with Inkscape (http://www.inkscape.org/) -->

<svg
   xmlns:dc="http://purl.org/dc/elements/1.1/"
   xmlns:cc="http://creativecommons.org/ns#"
   xmlns:rdf="http://www.w3.org/1999/02/22-rdf-syntax-ns#"
   xmlns:svg="http://www.w3.org/2000/svg"
   xmlns="http://www.w3.org/2000/svg"
   xmlns:sodipodi="http://sodipodi.sourceforge.net/DTD/sodipodi-0.dtd"
   xmlns:inkscape="http://www.inkscape.org/namespaces/inkscape"
   version="1.1"
   id="svg101"
   width="320.08966"
   height="260.09991"
   viewBox="0 0 320.08966 260.09991"
   sodipodi:docname="bangalore-passive.svg"
   inkscape:version="0.92.1 r15371">
  <metadata
     id="metadata107">
    <rdf:RDF>
      <cc:Work
         rdf:about="">
        <dc:format>image/svg+xml</dc:format>
        <dc:type
           rdf:resource="http://purl.org/dc/dcmitype/StillImage" />
        <dc:title></dc:title>
      </cc:Work>
    </rdf:RDF>
  </metadata>
  <defs
     id="defs105" />
  <sodipodi:namedview
     pagecolor="#ffffff"
     bordercolor="#666666"
     borderopacity="1"
     objecttolerance="10"
     gridtolerance="10"
     guidetolerance="10"
     inkscape:pageopacity="0"
     inkscape:pageshadow="2"
     inkscape:window-width="1280"
     inkscape:window-height="704"
     id="namedview103"
     showgrid="false"
     inkscape:zoom="1.2089838"
     inkscape:cx="31.67274"
     inkscape:cy="151.37035"
     inkscape:window-x="0"
     inkscape:window-y="128"
     inkscape:window-maximized="1"
     inkscape:current-layer="svg101" />
  <g
     id="g111"
     transform="translate(0,-0.04042341)">
    <path
       style="fill:#fd0404;stroke-width:0.31999999"
       d="m 153.12,259.99922 c -0.176,-0.0606 -1.16664,-0.20596 -2.20141,-0.32294 -1.40331,-0.15863 -2.06332,-0.40896 -2.59722,-0.98504 -0.55797,-0.60206 -0.92389,-0.73073 -1.65963,-0.58359 -2.15939,0.43188 -5.8308,-1.50958 -6.67486,-3.52969 -0.60008,-1.43619 -0.16608,-2.84025 1.3685,-4.42738 1.5166,-1.56854 3.49561,-2.58671 6.69343,-3.44366 1.37895,-0.36953 3.19363,-1.04549 4.03265,-1.50214 1.73111,-0.94219 4.71854,-3.93917 4.71854,-4.73363 0,-0.28994 -0.504,-1.42839 -1.12,-2.52991 -0.616,-1.10151 -1.12,-2.19564 -1.12,-2.4314 0,-0.23576 -0.58131,-1.11805 -1.29179,-1.96064 -0.71049,-0.8426 -1.53849,-2.08037 -1.84,-2.7506 -0.66564,-1.47966 -6.04223,-6.65327 -7.58357,-7.29728 -0.60724,-0.25373 -1.60333,-0.46132 -2.21353,-0.46132 -0.61019,0 -1.49621,-0.14705 -1.96892,-0.32677 -0.74938,-0.28492 -0.83416,-0.45337 -0.66183,-1.315 0.15264,-0.76322 0.0226,-1.1963 -0.57136,-1.90212 -0.42295,-0.50264 -0.86682,-1.49295 -0.98639,-2.20067 -0.16166,-0.95684 -0.43313,-1.39045 -1.05875,-1.69111 -0.86414,-0.41528 -3.26386,-3.5578 -3.26386,-4.27413 0,-0.6314 10.03574,-3.64029 15.27825,-4.58069 1.99833,-0.35846 3.55222,-0.81509 3.92656,-1.15387 0.46763,-0.4232 0.97133,-0.52098 2.05462,-0.39888 1.13336,0.12774 1.54915,0.0357 1.97744,-0.4375 0.40753,-0.45032 0.98949,-0.59926 2.34152,-0.59926 2.59113,0 3.11552,0.47248 3.27596,2.95166 0.10033,1.55052 0.47369,2.74244 1.6378,5.22861 0.91421,1.95243 1.50785,3.67004 1.50785,4.36268 0,0.89809 0.14641,1.18069 0.68459,1.32143 0.59601,0.15586 0.66225,0.34553 0.51198,1.46591 -0.14689,1.09513 -0.0759,1.31759 0.47671,1.49297 0.58208,0.18474 0.63181,0.3992 0.48022,2.07096 -0.14505,1.59963 -0.0764,1.94743 0.48256,2.44533 0.85296,0.75975 3.2649,5.71264 3.80149,7.80629 0.28864,1.12624 0.62886,1.72171 1.08217,1.89405 1.05072,0.39949 2.48095,3.35105 2.5675,5.29858 0.0599,1.34684 0.27797,1.93484 1.09468,2.95113 2.80457,3.48991 3.06869,11.31666 0.44001,13.03904 -0.5673,0.37171 -1.33613,0.49724 -2.61287,0.42663 -1.37334,-0.076 -2.16522,0.0736 -3.28793,0.62099 -1.63332,0.79632 -4.14818,1.37205 -9.28218,2.12496 -3.04836,0.44706 -7.59398,0.62912 -8.43893,0.338 z m -30.60645,-52.28831 c -0.46555,-0.15269 -1.75597,-0.76211 -2.86761,-1.35426 -5.79134,-3.08497 -8.7551,-8.62773 -5.62965,-10.52843 1.05897,-0.64399 1.90577,-0.5808 2.80891,0.20963 1.32315,1.15803 1.6956,-0.039 0.5002,-1.60765 -1.65424,-2.17074 -3.44476,-6.55453 -4.07945,-9.9879 -0.68715,-3.71713 1.99664,-5.20138 4.72452,-2.61285 1.24828,1.18451 1.1935,1.26587 2.82005,-4.1879 0.86635,-2.90484 1.08586,-4.05317 0.82473,-4.3143 -0.51783,-0.51783 -4.66725,-0.64915 -7.35151,-0.23268 -4.08466,0.63376 -5.88721,2.10457 -7.42569,6.05909 -0.78228,2.0108 -0.95904,6.11929 -0.459,10.66866 0.22811,2.07529 0.18154,2.65012 -0.29631,3.65711 -0.79471,1.67473 -0.54003,7.49818 0.43912,10.04057 0.3728,0.968 0.67789,1.94 0.67798,2.16 1.2e-4,0.31435 -3.23372,0.4 -15.103021,0.4 H 76.993638 L 50.14008,179.28 C 11.081635,140.29945 0,129.07568 0,128.49682 0,127.76941 23.988636,103.38323 50.72,76.936275 63.216,64.573226 73.98159,53.99664 74.643533,53.432752 c 1.523334,-1.297686 1.938758,-1.011725 2.459136,1.692781 0.629542,3.271843 1.596537,4.941997 4.952915,8.554467 1.716995,1.848 3.392787,3.886211 3.723984,4.529357 0.761446,1.478649 4.383005,3.93471 7.201702,4.884035 1.127959,0.379891 2.211805,0.851683 2.408544,1.048422 0.263616,0.263616 0.215988,2.580496 -0.181059,8.807693 -0.656397,10.294826 -0.573721,10.952013 2.089456,16.609159 3.157499,6.707194 3.059939,7.170864 -1.438432,6.836474 -2.398486,-0.17829 -3.417718,-0.0936 -5.895853,0.48978 -3.500953,0.8242 -4.70232,0.71885 -7.41438,-0.6502 -4.482948,-2.26298 -9.159719,-3.17884 -12.556388,-2.45894 -1.581468,0.33519 -3.276979,1.85729 -4.285212,3.84695 -1.130551,2.23103 -2.267069,6.94652 -2.687261,11.14965 -0.72408,7.24282 0.515433,8.72824 9.939315,11.91111 5.498307,1.85703 11.041181,3.25453 15.519226,3.91277 4.807446,0.70666 11.915064,0.47685 16.320774,-0.52769 2.56459,-0.58476 4.21666,-0.73549 8.32,-0.7591 5.67807,-0.0327 7.5596,0.3863 8.79656,1.95884 1.08654,1.38132 0.83179,2.27591 -1.44072,5.05914 -3.02974,3.71065 -3.35584,4.51884 -3.35584,8.31698 0,1.73929 0.17166,4.34962 0.38147,5.80072 0.34017,2.35275 0.30578,3.08201 -0.31769,6.73661 -0.38453,2.25403 -0.73619,4.38361 -0.78147,4.73239 -0.0763,0.58817 0.0798,0.62638 2.15329,0.52697 3.25548,-0.15607 4.36867,-0.60428 5.07106,-2.04176 0.69974,-1.43207 2.66906,-8.14469 2.96488,-10.10613 0.19852,-1.31623 0.13969,-1.45756 -1.15627,-2.77805 -1.2625,-1.28639 -1.3522,-1.48987 -1.18999,-2.69924 0.12778,-0.95268 0.8638,-2.2842 2.70963,-4.90195 3.22543,-4.57428 4.03321,-5.98592 4.89485,-8.55399 0.78854,-2.35021 0.77028,-5.83012 -0.0395,-7.52629 -0.39478,-0.82691 -0.65149,-0.96645 -1.93076,-1.04953 -1.24717,-0.081 -15.69684,1.63113 -24.4395,2.8958 -1.52385,0.22044 -6.63984,0.36639 -12.64,0.36061 -9.348298,-0.009 -10.26583,-0.0604 -12.64,-0.70813 -3.192461,-0.87096 -9.786538,-4.08374 -11.60839,-5.65587 -3.616967,-3.12119 -3.085264,-6.33915 1.906544,-11.53873 2.884732,-3.00481 5.570656,-4.61786 7.689286,-4.61786 1.120637,0 1.292035,0.11205 1.713184,1.12 0.257379,0.616 0.587488,1.12 0.733574,1.12 0.146087,0 1.102695,-0.288 2.125802,-0.64 2.881898,-0.99152 3.162976,-0.91305 5.641091,1.57492 3.581223,3.59545 6.199475,4.05965 11.17416,1.98111 3.771769,-1.57594 11.184749,-6.35279 11.184749,-7.20735 0,-0.23032 -1.224,-1.74688 -2.72,-3.37015 -1.496,-1.62326 -2.72,-3.134146 -2.72,-3.357512 0,-0.22337 -0.65358,-1.399476 -1.45239,-2.613572 -1.52965,-2.324867 -2.20817,-4.245984 -2.53876,-7.188137 -0.22555,-2.007322 0.27104,-5.704119 0.94,-6.997747 0.68688,-1.328276 1.17947,-5.784596 1.20158,-10.870317 0.0195,-4.501098 -2.4e-4,-4.640579 -0.74516,-5.246055 -0.67642,-0.549788 -1.08108,-0.597878 -3.48527,-0.414169 -1.496,0.114313 -3.33919,0.291408 -4.095978,0.393545 -1.740649,0.234922 -2.086316,-0.06137 -4.718617,-4.044566 -2.060448,-3.117872 -3.382983,-4.600054 -4.684999,-5.250544 -0.725785,-0.362605 -0.740944,-0.471018 -0.767664,-5.490445 -0.02179,-4.095363 -0.128848,-5.27855 -0.534681,-5.909773 -0.279085,-0.434083 -0.939591,-2.554809 -1.467789,-4.712726 -0.528202,-2.15792 -1.42345,-4.874061 -1.989443,-6.035866 -1.001971,-2.056729 -1.024707,-2.197833 -0.863123,-5.356511 0.264563,-5.171791 1.057411,-6.308758 6.002294,-8.607487 7.389219,-3.435026 13.795795,-4.374405 18,-2.639292 1.02728,0.423967 0.59862,-0.583278 -1.03852,-2.440291 -0.87421,-0.991614 -2.92944,-2.818942 -4.567179,-4.060728 C 96.83656,10.014551 94.016762,7.4775312 92.20808,5.6185162 89.244224,2.5721839 88.929456,2.1358884 89.019782,1.1992443 89.172589,-0.38533722 90.203267,-0.34670826 92.418458,1.3266239 93.420307,2.0834096 103.32308,11.742513 114.42464,22.791299 125.52619,33.840083 134.78325,42.88 134.99589,42.88 c 0.7611,0 -0.28122,-1.178483 -8.60743,-9.73183 -9.56225,-9.823118 -12.23242,-12.966608 -12.08561,-14.227979 0.24131,-2.073386 0.94749,-1.485269 13.68585,11.397785 6.78222,6.859253 13.1897,13.103765 14.23886,13.876696 1.04915,0.772931 4.37101,3.810646 7.38191,6.750483 l 5.47435,5.345155 0.40057,5.219824 c 0.58315,7.59905 1.18005,12.402301 1.59247,12.814724 0.26867,0.268675 1.14223,0.173292 3.40184,-0.37145 1.67218,-0.403123 3.11641,-0.856058 3.2094,-1.006518 0.2245,-0.363252 -1.30421,-11.776436 -2.1199,-15.82689 -0.35443,-1.76 -1.00049,-3.98263 -1.4357,-4.939181 -0.68799,-1.51215 -0.73125,-1.799216 -0.33138,-2.199078 0.38817,-0.388173 2.87239,-0.45441 15.92939,-0.424707 15.32033,0.03485 17.85601,0.162531 18.10573,0.911686 0.13826,0.414774 -3.75423,4.375866 -17.27624,17.58072 -4.708,4.597574 -8.56,8.573277 -8.56,8.834893 0,0.689833 1.31786,0.868022 8.10716,1.096179 l 6.02716,0.202544 14.50704,-14.504416 14.50705,-14.504419 34.02579,0.249731 c 37.58851,0.275878 41.96924,0.394061 42.11029,1.136048 0.11539,0.606973 -4.217,5.055277 -16.64449,17.089824 -5.57107,5.394922 -9.84,9.773245 -9.84,10.092157 0,0.77991 2.09359,0.892093 24.16,1.294573 10.032,0.182979 21.68786,0.473664 25.9019,0.645968 6.87835,0.281241 8.70447,0.537769 8.10384,1.138409 -0.61797,0.617962 -18.09039,1.217517 -47.07955,1.615501 l -15.9538,0.219027 -3.7262,3.384659 c -4.64223,4.216736 -32.00972,31.564042 -37.73157,37.703752 -2.32904,2.49913 -4.23462,4.78083 -4.23462,5.07046 0,0.65627 8.11626,8.90671 25.20886,25.6256 l 13.20887,12.92007 23.59113,0.0252 c 27.87009,0.0298 45.61126,0.36227 46.87114,0.87842 1.15424,0.47288 1.25053,2.07429 0.16,2.66164 -1.20458,0.64878 -10.82081,0.8697 -38.86111,0.8928 -14.64162,0.0121 -26.69332,0.13874 -26.78156,0.28152 -0.0882,0.14278 7.31096,7.72996 16.44267,16.8604 9.13171,9.13045 16.53091,16.71763 16.44267,16.86041 -0.0882,0.14277 -17.28794,0.25959 -38.22156,0.25959 -29.06284,0 -38.06111,-0.0894 -38.06111,-0.37815 0,-0.20799 1.15072,-1.55708 2.55715,-2.99798 5.6649,-5.80375 6.31489,-10.59809 3.51191,-25.90387 -0.97124,-5.30347 -0.65688,-4.96033 -4.5422,-4.95821 -5.10743,0.003 -7.06298,0.87016 -4.70772,2.0881 1.19123,0.61602 1.98946,2.34955 2.76157,5.99733 0.69577,3.28712 0.80063,12.46261 0.16634,14.55506 -0.7814,2.57776 -4.22924,5.12863 -6.38531,4.72415 -2.29386,-0.43033 -4.70341,-3.44802 -6.29058,-7.87826 -1.04704,-2.92257 -4.61354,-6.05042 -6.89381,-6.04593 -2.85151,0.006 -10.24627,2.24427 -14.96127,4.52929 -3.68435,1.78554 -6.18877,3.83411 -6.91928,5.65982 -0.63794,1.59438 -2.0109,2.73214 -4.12687,3.4199 -0.92946,0.30211 -3.20193,1.1663 -5.04993,1.92043 -4.12736,1.68428 -6.09972,2.20844 -12.64,3.35916 -2.816,0.49545 -7.928,1.49793 -11.36,2.22773 -6.29787,1.3392 -11.22868,1.84291 -12.84645,1.31234 z m 27.61974,-31.0977 c 1.42949,-0.71874 3.9965,-1.85139 5.70447,-2.517 3.7783,-1.47245 4.85733,-2.06386 3.20224,-1.75513 -2.47572,0.46181 -12.48,4.72003 -12.48,5.31199 0,0.53793 1.03324,0.23725 3.57329,-1.03986 z m 61.54777,-9.89438 c 0.52596,-0.58119 0.54234,-0.81323 0.17505,-2.48 -0.54239,-2.46135 -2.2226,-6.05393 -3.52519,-7.53751 -1.28582,-1.46446 -2.98297,-2.48457 -5.86915,-3.52779 -2.56692,-0.92782 -3.30876,-1.52241 -3.60161,-2.88671 -0.11886,-0.55375 -1.11354,-3.23882 -2.2104,-5.96682 -2.62452,-6.52742 -4.07857,-10.96722 -3.95217,-12.0675 0.0845,-0.73574 0.44701,-1.06285 2.07578,-1.87323 1.08535,-0.54 3.60535,-1.53282 5.6,-2.20625 9.46679,-3.19619 12.40171,-5.57911 12.02248,-9.7613 -0.24252,-2.67455 -1.56903,-5.19613 -6.99227,-13.29172 -2.71175,-4.048 -5.4196,-8.296 -6.01743,-9.44 -2.19794,-4.205936 -4.23589,-5.909974 -7.8458,-6.560266 L 189.6,88.770198 189.43857,86.75567 c -0.21184,-2.643622 -0.75901,-3.102393 -4.07031,-3.412688 -2.95606,-0.277004 -21.76443,0.0074 -22.58178,0.341463 -0.95827,0.391654 -0.46748,0.891245 2.35332,2.395555 2.0874,1.113197 2.72473,1.613504 2.80829,2.204512 0.10701,0.756861 0.0878,0.762221 -1.92,0.535523 -1.11545,-0.125945 -2.42187,-0.307529 -2.90316,-0.403526 -1.42651,-0.284525 -1.40094,0.586966 0.0977,3.330857 2.65055,4.852861 4.08974,6.8645 4.83198,6.75393 1.29086,-0.192294 1.43147,-1.020778 0.48927,-2.882982 -0.98156,-1.940026 -1.05476,-2.7021 -0.4082,-4.249533 0.58509,-1.40033 1.54833,-1.595978 6.7117,-1.363245 6.49598,0.292794 14.05354,2.171702 15.91722,3.957226 0.50244,0.481366 1.20764,1.661299 1.56711,2.622076 0.89883,2.402327 2.53609,5.141612 7.92957,13.266902 5.24342,7.89921 5.54783,8.72586 3.68213,9.99913 -0.59888,0.4087 -2.03977,0.85882 -3.50682,1.09548 -1.36963,0.22095 -3.8942,0.89041 -5.61014,1.48769 -1.71594,0.59728 -3.33141,1.08596 -3.58994,1.08596 -0.69221,0 -4.5045,2.04997 -5.96828,3.2093 -1.0198,0.8077 -1.26826,1.21192 -1.26826,2.06339 0,1.49113 1.98821,7.70686 5.2575,16.43648 1.84567,4.92829 2.73463,7.71861 2.6132,8.20245 -0.22919,0.91315 -3.78283,4.24544 -4.67655,4.38524 -0.94727,0.14818 -10.29766,8.00763 -9.94556,8.35973 0.15825,0.15825 2.21006,0.23306 4.55957,0.16623 4.70639,-0.13387 4.80686,-0.16603 9.1522,-2.92978 3.41934,-2.1748 5.99793,-3.17878 8.59182,-3.34525 2.27438,-0.14596 2.276,-0.14547 3.09893,0.93344 0.45284,0.59371 1.10424,1.72732 1.44756,2.51913 0.81826,1.88722 1.88614,2.83319 3.78827,3.35575 2.22207,0.61046 3.13352,0.57267 3.79412,-0.15728 z m -83.69565,-125.6682 0.78542,-0.511107 -1.10006,-0.82976 C 127.06574,39.253392 124.96166,37.404 122.99504,35.6 c -1.96662,-1.804 -3.67903,-3.28 -3.80536,-3.28 -0.8613,0 2.32689,7.489622 3.72696,8.755312 0.928,0.838922 1.149,0.897418 2.64793,0.70087 0.89949,-0.117945 1.98887,-0.444441 2.42084,-0.725552 z m 42.78792,164.81604 c -0.48942,-0.48943 -0.11746,-1.23751 1.5723,-3.16217 0.98209,-1.11862 2.17009,-2.79269 2.64,-3.72016 0.78949,-1.55824 1.08098,-1.80511 3.83844,-3.25087 l 2.98406,-1.56458 5.72147,5.68952 c 3.14681,3.12924 5.64748,5.80924 5.55705,5.95555 -0.19394,0.3138 -22.00072,0.36531 -22.31332,0.0527 z m 77.65213,-70.02863 c -13.01726,-3.86045 -14.94522,-4.56075 -15.08003,-5.47758 -0.0828,-0.56326 0.434,-0.80928 4.16,-1.98031 8.24084,-2.58999 21.72562,-5.95235 23.09103,-5.75763 1.26987,0.1811 0.69467,1.00388 -1.55183,2.21981 -1.22946,0.66545 -2.28546,1.36015 -2.34667,1.54379 -0.0679,0.20382 0.55351,0.33486 1.59537,0.3364 6.58777,0.01 61.20603,0.99017 61.31652,1.10066 0.0762,0.0762 0.21536,1.36918 0.3092,2.87324 l 0.17061,2.73466 -32.33815,-0.0755 c -17.95596,-0.0419 -32.45675,0.0479 -32.60483,0.20199 -0.14667,0.15264 0.008,0.44064 0.34435,0.64 3.23093,1.91661 5.46897,3.63637 5.46897,4.20247 0,0.40404 -0.23596,0.66502 -0.64,0.70787 -0.352,0.0373 -5.70454,-1.43409 -11.89454,-3.26983 z M 185.88947,43.521859 c -5.79376,-1.554934 -16.13268,-4.73424 -19.07775,-5.866563 -2.17022,-0.834413 -2.83448,-1.233501 -2.91149,-1.749213 -0.0851,-0.569593 0.22177,-0.769885 2.08,-1.357805 1.19887,-0.379305 3.14653,-0.7343 4.32812,-0.788873 1.49886,-0.06923 2.41791,-0.289693 3.04,-0.729242 1.88058,-1.328756 10.48739,-3.910163 13.03709,-3.910163 0.94897,0 1.52903,-0.191899 1.93456,-0.64 0.90845,-1.003832 3.36,-0.725516 3.36,0.38145 0,0.139397 -1.008,0.923724 -2.24,1.742949 -1.232,0.819224 -2.24,1.59762 -2.24,1.729767 0,0.440896 8.21766,0.619028 44,0.953773 71.64318,0.670227 86.10752,0.984867 87.83745,1.910698 0.98252,0.525824 0.84302,1.860825 -0.23745,2.272483 -1.69062,0.644131 -13.97924,0.888704 -54.48,1.084294 -41.44606,0.200157 -75.59531,0.643648 -77.40318,1.005223 -0.54825,0.109648 -0.99628,0.289363 -0.99562,0.399363 6.4e-4,0.11 0.63227,0.459485 1.40358,0.776634 3.94442,1.621878 5.76824,3.771737 3.15522,3.719273 -0.66,-0.01325 -2.72574,-0.433574 -4.59053,-0.934048 z"
       id="path115"
       inkscape:connector-curvature="0" />
    <path
       style="fill:#030202;stroke-width:0.31999999"
       d="M 50.30049,179.44 C 11.005302,140.21842 0,129.07265 0,128.49749 0,127.76948 23.979326,103.39244 50.72,76.936275 63.216,64.573226 73.98159,53.99664 74.643533,53.432752 c 1.523334,-1.297686 1.938758,-1.011725 2.459136,1.692781 0.629542,3.271843 1.596537,4.941997 4.952915,8.554467 1.716995,1.848 3.392787,3.886211 3.723984,4.529357 0.761446,1.478649 4.383005,3.93471 7.201702,4.884035 1.127959,0.379891 2.211805,0.851683 2.408544,1.048422 0.263616,0.263616 0.215988,2.580496 -0.181059,8.807693 -0.656397,10.294826 -0.573721,10.952013 2.089456,16.609159 3.157499,6.707194 3.059939,7.170864 -1.438432,6.836474 -2.398486,-0.17829 -3.417718,-0.0936 -5.895853,0.48978 -3.500953,0.8242 -4.70232,0.71885 -7.41438,-0.6502 -4.482948,-2.26298 -9.159719,-3.17884 -12.556388,-2.45894 -1.581468,0.33519 -3.276979,1.85729 -4.285212,3.84695 -1.130551,2.23103 -2.267069,6.94652 -2.687261,11.14965 -0.72408,7.24282 0.515433,8.72824 9.939315,11.91111 5.498307,1.85703 11.041181,3.25453 15.519226,3.91277 4.807446,0.70666 11.915064,0.47685 16.320774,-0.52769 2.56459,-0.58476 4.21666,-0.73549 8.32,-0.7591 5.67807,-0.0327 7.5596,0.3863 8.79656,1.95884 1.1125,1.41432 0.84363,2.29357 -1.60022,5.23303 -3.60073,4.33092 -4.4623,7.60844 -3.22779,12.27893 0.3693,1.39714 0.67099,3.12514 0.67043,3.84 -10e-4,1.42869 -0.73207,5.83159 -1.38452,8.33973 l -0.41621,1.6 -18.219127,0.098 C 78.318077,166.76245 72.32,166.59588 72.32,165.9521 c 0,-0.21162 1.076256,-0.99711 2.39168,-1.74553 4.643078,-2.64171 3.602726,-2.60671 -7.607933,0.25594 -12.457958,3.18116 -15.17647,4.05144 -14.565155,4.66275 0.723014,0.72302 16.282522,5.43291 21.092746,6.38481 1.478764,0.29264 2.940662,0.60429 3.248662,0.69256 1.32032,0.3784 0.38031,-0.55323 -1.84,-1.82359 -3.283619,-1.87875 -3.172973,-2.21948 0.72,-2.21728 11.10967,0.006 34.1004,0.95197 34.57043,1.422 0.0946,0.0946 -0.33182,0.66141 -0.94767,1.25952 -1.3108,1.27303 -2.32801,3.30292 -3.0318,6.05008 -0.49994,1.95143 -0.49034,2.9944 0.0853,9.26512 0.15568,1.69598 0.0783,2.41103 -0.36116,3.33711 -0.79428,1.67381 -0.52379,7.48501 0.47011,10.10027 0.38374,1.00972 0.60756,1.98172 0.49738,2.16 -0.13063,0.21136 -5.39375,0.32414 -15.126202,0.32414 H 76.990486 Z m 120.47284,26.42667 c -0.48942,-0.48943 -0.11746,-1.23751 1.5723,-3.16217 0.98209,-1.11862 2.17009,-2.79269 2.64,-3.72016 0.78947,-1.55821 1.08101,-1.80512 3.83807,-3.25068 l 2.9837,-1.56439 5.5763,5.5434 c 3.06696,3.04887 5.5763,5.72879 5.5763,5.95537 0,0.32795 -2.24052,0.41196 -10.98667,0.41196 -6.04266,0 -11.08266,-0.096 -11.2,-0.21333 z M 210.24657,205.68 c 0.004,-0.22 1.09315,-1.4792 2.42118,-2.79822 3.87048,-3.84422 5.25369,-7.2912 5.25094,-13.08546 -0.001,-2.90481 -1.28811,-12.65488 -2.08853,-15.8255 -0.25953,-1.02804 -0.39099,-2.00004 -0.29213,-2.16 0.10445,-0.16899 7.9138,-0.29082 18.64198,-0.29082 h 18.46223 l 17.05166,17.05389 c 9.37841,9.37964 16.9499,17.15564 16.82554,17.28 -0.12436,0.12436 -17.33811,0.22611 -38.25277,0.22611 -30.21151,0 -38.02532,-0.0822 -38.0201,-0.4 z m 5.2081,-38.29414 c -1.44393,-0.10222 -2.74964,-0.32986 -2.90157,-0.50586 -0.15194,-0.176 -0.45924,-1.256 -0.68291,-2.4 -0.5066,-2.59115 -2.14371,-6.18922 -3.53927,-7.77868 -1.28582,-1.46446 -2.98297,-2.48457 -5.86915,-3.52779 -2.56584,-0.92743 -3.30777,-1.5217 -3.60397,-2.88671 -0.12016,-0.55375 -1.19348,-3.45482 -2.38514,-6.44682 -2.88856,-7.25255 -3.9831,-10.71702 -3.7187,-11.77051 0.26108,-1.04021 2.39892,-2.10232 8.52604,-4.23585 8.90404,-3.10048 11.49028,-5.29262 11.11585,-9.42192 -0.24252,-2.67455 -1.56903,-5.19613 -6.99227,-13.29172 -2.71175,-4.048 -5.4196,-8.296 -6.01743,-9.44 -2.19771,-4.205507 -4.23498,-5.909162 -7.8458,-6.561018 L 189.6,88.768694 189.36264,86.224346 c -0.13055,-1.399389 -0.17826,-2.705623 -0.10601,-2.90274 0.0949,-0.258841 8.16063,-0.414944 29.03736,-0.561987 15.8983,-0.111977 30.81401,-0.291728 33.14601,-0.399443 3.47513,-0.160522 4.23606,-0.116867 4.21819,0.241987 -0.012,0.24081 -1.18989,1.445837 -2.61754,2.677837 -3.25717,2.81079 -32.88043,32.3523 -38.5703,38.46387 -2.32669,2.49913 -4.23035,4.78083 -4.23035,5.07046 0,0.65217 8.07245,8.86006 24.96,25.37875 7.128,6.97231 13.00656,12.85917 13.06346,13.08192 0.0825,0.32298 -2.96327,0.39404 -15.04,0.35086 -8.3289,-0.0298 -16.32486,-0.13778 -17.76879,-0.24 z M 211.2,78.542445 c -14.344,-0.217475 -26.548,-0.410493 -27.12,-0.428928 -0.60274,-0.01942 -1.04,-0.202269 -1.04,-0.43488 0,-0.220752 6.30061,-6.700752 14.00135,-14.4 L 211.0427,49.28 l 19.19865,0.01302 c 22.5542,0.0153 55.7568,0.482848 56.55865,0.796442 0.308,0.120454 0.56,0.357728 0.56,0.527273 0,0.494154 -6.07771,6.621971 -17.76,17.906413 L 258.72,79.032627 248,78.985242 c -5.896,-0.02605 -22.456,-0.225322 -36.8,-0.442797 z m -50.85286,-0.909744 c -0.53415,-0.643607 0.66171,-1.49137 3.63172,-2.574592 1.33163,-0.485674 2.42114,-0.985351 2.42114,-1.110397 0,-0.125043 -0.42962,-0.544989 -0.95472,-0.933206 -1.50177,-1.110308 -1.83108,-2.12609 -2.56503,-7.912132 -0.79897,-6.298512 -1.32931,-9.016508 -2.25912,-11.577952 -1.09567,-3.01839 -1.13207,-3.54999 -0.2553,-3.729401 1.54113,-0.315354 17.65411,-0.463968 25.15963,-0.232051 5.54262,0.17126 7.87839,0.355158 8.16,0.642435 0.31477,0.321117 -1.61213,2.389545 -9.53083,10.230873 -10.30054,10.199888 -16.66079,15.925991 -18.89566,17.011684 -1.54182,0.749011 -4.35569,0.854844 -4.91183,0.184739 z"
       id="path113"
       inkscape:connector-curvature="0" />
  </g>
</svg>
