<?xml version="1.0" encoding="UTF-8" standalone="no"?>
<!-- Created with Inkscape (http://www.inkscape.org/) -->

<svg
   xmlns:dc="http://purl.org/dc/elements/1.1/"
   xmlns:cc="http://creativecommons.org/ns#"
   xmlns:rdf="http://www.w3.org/1999/02/22-rdf-syntax-ns#"
   xmlns:svg="http://www.w3.org/2000/svg"
   xmlns="http://www.w3.org/2000/svg"
   xmlns:sodipodi="http://sodipodi.sourceforge.net/DTD/sodipodi-0.dtd"
   xmlns:inkscape="http://www.inkscape.org/namespaces/inkscape"
   version="1.1"
   id="svg80"
   width="1000"
   height="1000"
   viewBox="0 0 1000 1000"
   sodipodi:docname="apex-logo.svg"
   inkscape:version="0.92.1 r15371">
  <metadata
     id="metadata86">
    <rdf:RDF>
      <cc:Work
         rdf:about="">
        <dc:format>image/svg+xml</dc:format>
        <dc:type
           rdf:resource="http://purl.org/dc/dcmitype/StillImage" />
        <dc:title></dc:title>
      </cc:Work>
    </rdf:RDF>
  </metadata>
  <defs
     id="defs84" />
  <sodipodi:namedview
     pagecolor="#ffffff"
     bordercolor="#666666"
     borderopacity="1"
     objecttolerance="10"
     gridtolerance="10"
     guidetolerance="10"
     inkscape:pageopacity="0"
     inkscape:pageshadow="2"
     inkscape:window-width="1280"
     inkscape:window-height="704"
     id="namedview82"
     showgrid="false"
     inkscape:zoom="0.28909456"
     inkscape:cx="450.68902"
     inkscape:cy="442.8518"
     inkscape:window-x="0"
     inkscape:window-y="128"
     inkscape:window-maximized="1"
     inkscape:current-layer="svg80" />
  <path
     style="fill:#000000;stroke-width:2.44526839"
     d="M 86.833742,949.3542 C 60.019964,921.499 29.513102,889.84668 19.040717,879.01568 8.5683145,868.18469 0,858.18354 0,856.79094 0,855.39831 13.388185,831.30976 29.751514,803.26081 46.114845,775.21185 79.040343,718.76327 102.91929,677.8195 c 23.87896,-40.94377 75.13344,-128.81119 113.89888,-195.26091 38.76542,-66.44973 80.07127,-137.29282 91.79077,-157.4291 11.71951,-20.13628 36.70872,-62.97164 55.53163,-95.18969 18.82288,-32.21806 51.14615,-87.68436 71.82948,-123.25845 20.68333,-35.574108 43.21126,-74.293869 50.06209,-86.043956 6.85083,-11.7500687 13.45769,-21.03109912 14.68195,-20.6245293 1.22425,0.40658817 12.36681,18.2578583 24.76123,39.6694783 41.76449,72.149067 130.31119,224.275327 141.75837,243.545697 6.24601,10.51465 11.3564,19.59953 11.3564,20.18861 0,0.58908 2.62328,5.16626 5.8295,10.17155 3.20621,5.00529 33.1261,56.32927 66.48867,114.05327 33.36252,57.72399 65.83359,113.73948 72.15793,124.47881 6.32433,10.73937 14.02646,23.91947 17.11582,29.28915 3.08938,5.36968 32.09514,55.34427 64.4572,111.05463 32.36208,55.71039 67.0573,115.45823 77.10048,132.77298 L 1000,856.71839 l -69.78711,69.5301 -69.7871,69.53008 -27.83593,-19.03575 C 817.28012,966.27318 776.64269,938.48138 742.28447,914.98328 707.92625,891.48519 653.35732,854.04693 621.02018,831.78719 l -58.79481,-40.47227 26.94763,-1.51343 c 14.82118,-0.8324 51.93764,-2.3599 82.48102,-3.39446 30.54336,-1.03457 56.86005,-2.69794 58.48152,-3.69634 2.84215,-1.75011 -10.12343,-25.29661 -57.75697,-104.89119 -8.4354,-14.0954 -26.31424,-44.29982 -39.73075,-67.12094 -54.19187,-92.17903 -99.55213,-169.14871 -107.16113,-181.83671 -4.42776,-7.38332 -10.22513,-17.26839 -12.88302,-21.96685 -12.08544,-21.36386 -16.09681,-27.02087 -17.85026,-25.17319 -1.03655,1.09227 -7.89226,12.42021 -15.2349,25.17319 -7.34263,12.75296 -37.05133,64.37507 -66.01937,114.71578 -28.968,50.3407 -72.31589,125.57717 -96.32865,167.19214 -24.01275,41.615 -46.31523,80.33157 -49.56105,86.03684 l -5.90147,10.37324 h 85.95189 c 47.27353,0 85.94165,0.82376 85.92917,1.83057 -0.0129,1.00682 -38.74815,29.28914 -86.07928,62.84961 -47.33114,33.56046 -114.10753,81.06378 -148.392,105.56293 C 164.83329,979.95524 136.51319,1000 136.1842,1000 c -0.32898,0 -22.53669,-22.79061 -49.350458,-50.6458 z"
     id="path90"
     inkscape:connector-curvature="0" />
</svg>
